<svg xmlns="http://www.w3.org/2000/svg" viewBox="0 0 501 500" xmlns:xlink="http://www.w3.org/1999/xlink" xmlns:figma="http://www.figma.com/figma/ns">
  <desc>
    Created using Figma
  </desc>
  <g>
    <g>
      <g transform="translate(102 -10)">
        <use fill="#97CA6C" xlink:href="#a" transform="translate(-101.605 10)"/>
      </g>
      <g transform="translate(102 -10)">
        <use fill="#5C5454" xlink:href="#b" transform="translate(-25.525 405)"/>
      </g>
      <g>
        <g transform="translate(102 -10)">
          <mask id="d">
            <use fill="#fff" xlink:href="#c" transform="translate(183.99 300)"/>
          </mask>
          <g mask="url(#d)">
            <use fill="#5C5454" xlink:href="#e" transform="translate(183.99 300)"/>
          </g>
        </g>
        <g transform="translate(102 -10)">
          <use fill="#5C5454" xlink:href="#f" transform="rotate(-144.486 211.67 150)"/>
        </g>
        <g transform="translate(102 -10)">
          <use fill="#5C5454" xlink:href="#g" transform="translate(243.474 359.474)"/>
        </g>
      </g>
      <g>
        <g transform="translate(102 -10)">
          <mask id="h">
            <use fill="#fff" xlink:href="#c" transform="translate(-16.01 300)"/>
          </mask>
          <g mask="url(#h)">
            <use fill="#5C5454" xlink:href="#e" transform="translate(-16.01 300)"/>
          </g>
        </g>
        <g transform="translate(102 -10)">
          <use fill="#5C5454" xlink:href="#f" transform="translate(6.106 376.316)"/>
        </g>
        <g transform="translate(102 -10)">
          <use fill="#5C5454" xlink:href="#g" transform="translate(43.474 359.474)"/>
        </g>
      </g>
      <g>
        <g transform="translate(102 -10)">
          <use fill="#FFF" xlink:href="#i" transform="translate(53.99 110)"/>
        </g>
        <g transform="translate(102 -10)">
          <use fill="#1978A2" xlink:href="#j" transform="translate(133.99 80)"/>
        </g>
        <g transform="translate(102 -10)">
          <use fill="#FFF" xlink:href="#k" transform="translate(163.99 110)"/>
        </g>
        <g transform="translate(102 -10)">
          <use fill="#1978A2" xlink:href="#l" transform="translate(213.99 130)"/>
        </g>
        <g transform="translate(102 -10)">
          <use fill="#1978A2" xlink:href="#m" transform="translate(53.99 220)"/>
        </g>
        <g transform="translate(102 -10)">
          <use fill="#FFF" xlink:href="#n" transform="translate(103.99 240)"/>
        </g>
        <g transform="translate(102 -10)">
          <use fill="#FFF" xlink:href="#o" transform="translate(103.99 220)"/>
        </g>
        <g transform="translate(102 -10)">
          <use fill="#1978A2" xlink:href="#p" transform="translate(143.99 220)"/>
        </g>
        <g transform="translate(102 -10)">
          <use fill="#FFF" xlink:href="#q" transform="translate(163.99 260)"/>
        </g>
        <g transform="translate(102 -10)">
          <use fill="#1978A2" xlink:href="#r" transform="translate(233.99 310)"/>
        </g>
      </g>
      <g transform="translate(102 -10)">
        <use fill="#1978A2" xlink:href="#s" transform="rotate(90 27.995 145.995)"/>
      </g>
      <g transform="translate(102 -10)">
        <use fill="#1978A2" xlink:href="#t" transform="rotate(90 32 128)"/>
      </g>
      <g>
        <g transform="translate(102 -10)">
          <use fill="#5C5454" xlink:href="#u" transform="translate(131 87.5)"/>
        </g>
        <g transform="translate(102 -10)">
          <use fill="#FFF" xlink:href="#v" transform="translate(83.5 51.118)"/>
        </g>
        <g transform="translate(102 -10)">
          <use fill="#5C5454" xlink:href="#w" transform="translate(85.794 32.5)"/>
        </g>
      </g>
      <g transform="translate(102 -10)">
        <use fill="#5C5454" xlink:href="#x" transform="translate(223.99 210)"/>
      </g>
    </g>
  </g>
  <defs>
    <path id="a" d="M500 250c0 138.07-111.93 250-250 250S0 388.07 0 250 111.93 0 250 0s250 111.93 250 250z"/>
    <path id="b" fill-rule="evenodd" d="M5.28 39c-1.8-1.64-3.55-3.3-5.28-5h164.02l7.06-32.04c.25-1.1 1.2-1.9 2.3-1.96 1.13-.06 2.15.63 2.5 1.7l14.45 42.5 3.2-27.5c.15-1.13 1.04-2.04 2.18-2.18 1.2-.14 2.3.5 2.7 1.58l6.9 17.9h143.8c-1.7 1.7-3.4 3.36-5.2 5H203.6c-1.05 0-1.98-.64-2.35-1.6l-3.9-10.04L194 55.8c-.13 1.15-1.05 2.06-2.2 2.2-1.17.1-2.27-.6-2.64-1.7l-15.12-44.52-5.57 25.26c-.26 1.14-1.27 1.96-2.44 1.96H5.28z"/>
    <path id="c" d="M140 70c0 38.66-31.34 70-70 70S0 108.66 0 70 31.34 0 70 0s70 31.34 70 70z"/>
    <path id="e" d="M130 70c0 33.14-26.86 60-60 60v20c44.18 0 80-35.82 80-80h-20zm-60 60c-33.14 0-60-26.86-60-60h-20c0 44.18 35.82 80 80 80v-20zM10 70c0-33.14 26.86-60 60-60v-20c-44.18 0-80 35.82-80 80h20zm60-60c33.14 0 60 26.86 60 60h20c0-44.18-35.82-80-80-80v20z"/>
    <path id="f" d="M2.47-.35C2.27-1.72 1-2.67-.35-2.47-1.72-2.27-2.67-1-2.47.35l4.94-.7zm38.58 44.43c1.38 0 2.5-1.12 2.5-2.5s-1.12-2.5-2.5-2.5v5zM0 0l-2.47.36v.07l.03.18.12.7c.1.6.26 1.4.5 2.4.45 1.9 1.22 4.7 2.37 7.9 2.3 6.2 6.4 14.2 13.02 20.3l3.38-3.7c-6-5.4-9.53-12.4-11.7-18.4-1.1-2.9-1.77-5.4-2.2-7.3C2.82 1.6 2.68.9 2.6.4l-.1-.6-.02-.1v-.03L0 0zm13.57 31.84c6.63 6.04 13.6 9.2 18.6 10.7 2.58.75 4.82 1.15 6.32 1.34.7.1 1.4.15 1.8.17.2 0 .4.02.5.03h.2v-5h-.1l-.4-.02c-.4-.02-.9-.06-1.5-.14-1.4-.17-3.2-.5-5.5-1.18-4.7-1.4-10.7-4.04-16.7-9.58l-3.4 3.68z"/>
    <path id="g" d="M21.05 10.53c0 5.8-4.7 10.52-10.52 10.52C4.7 21.05 0 16.35 0 10.53 0 4.7 4.7 0 10.53 0c5.8 0 10.52 4.7 10.52 10.53z"/>
    <path id="i" d="M0 0v-5c-2.76 0-5 2.24-5 5h5zm0 90h-5c0 2.76 2.24 5 5 5v-5zm120 0v5c2.76 0 5-2.24 5-5h-5zm0-50h5c0-2.76-2.24-5-5-5v5zm-60 0v5c2.76 0 5-2.24 5-5h-5zm0-40h5c0-2.76-2.24-5-5-5v5zM-5 0v40H5V0H-5zm0 40v50H5V40H-5zm5 55h120V85H0v10zm125-5V40h-10v50h10zm-5-55H0v10h120V35zM0 45h60V35H0v10zm65-5V0H55v40h10zM60-5H0V5h60V-5z"/>
    <path id="j" d="M0 0v-5c-2.76 0-5 2.24-5 5h5zm0 50h-5c0 2.76 2.24 5 5 5v-5zm40 0v5c2.76 0 5-2.24 5-5h-5zm0-50h5c0-2.76-2.24-5-5-5v5zM-5 0v50H5V0H-5zm5 55h40V45H0v10zm45-5V0H35v50h10zM40-5H0V5h40V-5z"/>
    <path id="k" d="M90 5c2.76 0 5-2.24 5-5s-2.24-5-5-5V5zM30 0v-5c-2.76 0-5 2.24-5 5h5zm0 90h-5c0 2.76 2.24 5 5 5v-5zm60 0h5c0-2.76-2.24-5-5-5v5zm0 40v5c2.76 0 5-2.24 5-5h-5zm-90-5c-2.76 0-5 2.24-5 5s2.24 5 5 5v-10zM90-5H30V5h60V-5zM25 0v90h10V0H25zm5 95h60V85H30v10zm55-5v40h10V90H85zm5 35H0v10h90v-10z"/>
    <path id="l" d="M40 5c2.76 0 5-2.24 5-5s-2.24-5-5-5V5zM0 0v-5c-2.76 0-5 2.24-5 5h5zm0 50h-5c0 2.76 2.24 5 5 5v-5zm40 5c2.76 0 5-2.24 5-5s-2.24-5-5-5v10zm0-60H0V5h40V-5zM-5 0v50H5V0H-5zm5 55h40V45H0v10z"/>
    <path id="m" d="M-5 150c0 2.76 2.24 5 5 5s5-2.24 5-5H-5zM0 0l4.9-.98c-.5-2.52-2.83-4.25-5.4-4C-3.04-4.72-5-2.58-5 0h5zm30 150l-4.9.98c.5 2.52 2.83 4.25 5.4 4 2.55-.26 4.5-2.4 4.5-4.98h-5zM35 0c0-2.76-2.24-5-5-5s-5 2.24-5 5h10zM5 150V0H-5v150H5zM-4.9.98l30 150 9.8-1.96-30-150L-4.9.98zM35 150V0H25v150h10z"/>
    <path id="n" d="M20 5c2.76 0 5-2.24 5-5s-2.24-5-5-5V5zM0 0v-5c-2.76 0-5 2.24-5 5h5zm20 46.8c2.76 0 5-2.25 5-5 0-2.77-2.24-5-5-5v10zM0 130h-5c0 2.76 2.24 5 5 5v-5zm110 5c2.76 0 5-2.24 5-5s-2.24-5-5-5v10zM20-5H0V5h20V-5zM-5 0v41.8H5V0H-5zm5 46.8h20v-10H0v10zm-5-5V130H5V41.8H-5zM0 135h110v-10H0v10z"/>
    <path id="o" d="M0-5c-2.76 0-5 2.24-5 5s2.24 5 5 5V-5zM20 5c2.76 0 5-2.24 5-5s-2.24-5-5-5V5zM0 5h20V-5H0V5z"/>
    <path id="p" d="M90 5c2.76 0 5-2.24 5-5s-2.24-5-5-5V5zM0 0v-5c-2.76 0-5 2.24-5 5h5zm0 130h-5c0 2.76 2.24 5 5 5v-5zm70 0v5c2.76 0 5-2.24 5-5h-5zm0-40h5c0-2.76-2.24-5-5-5v5zm-19.16-5c-2.76 0-5 2.24-5 5s2.24 5 5 5V85zM90-5H0V5h90V-5zM-5 0v130H5V0H-5zm5 135h70v-10H0v10zm75-5V90H65v40h10zm-5-45H50.84v10H70V85z"/>
    <path id="q" d="M-5 70c0 2.76 2.24 5 5 5s5-2.24 5-5H-5zM0 0v-5c-2.76 0-5 2.24-5 5h5zm90 0h5c0-2.76-2.24-5-5-5v5zm0 30v5c2.76 0 5-2.24 5-5h-5zM0 30v-5c-1.85 0-3.54 1.02-4.4 2.65-.88 1.63-.78 3.6.25 5.14L0 30zm22.7 42.8c1.53 2.28 4.64 2.9 6.93 1.35 2.3-1.54 2.9-4.64 1.37-6.94l-8.3 5.6zM5 70V0H-5v70H5zM0 5h90V-5H0V5zm85-5v30h10V0H85zm5 25H0v10h90V25zm-94.15 7.8l26.84 40 8.3-5.6-26.9-40-8.3 5.6z"/>
    <path id="r" d="M20 5c2.76 0 5-2.24 5-5s-2.24-5-5-5V5zM0 0v-5c-2.76 0-5 2.24-5 5h5zm13 35c2.76 0 5-2.24 5-5s-2.24-5-5-5v10zM0 60h-5c0 2.76 2.24 5 5 5v-5zm20 5c2.76 0 5-2.24 5-5s-2.24-5-5-5v10zm0-70H0V5h20V-5zM-5 0v30H5V0H-5zm5 35h13V25H0v10zm-5-5v30H5V30H-5zm5 35h20V55H0v10z"/>
    <path id="s" d="M2.5 0c0-1.38-1.12-2.5-2.5-2.5S-2.5-1.38-2.5 0h5zm-5 8c0 1.38 1.12 2.5 2.5 2.5S2.5 9.38 2.5 8h-5zm0-8v8h5V0h-5z"/>
    <path id="t" d="M2.5-5C1.12-5 0-3.88 0-2.5S1.12 0 2.5 0v-5zm2 5C5.88 0 7-1.12 7-2.5S5.88-5 4.5-5v5zm-2 0h2v-5h-2v5z"/>
    <path id="u" d="M19.08 46.12c.34 1.34 1.7 2.14 3.04 1.8 1.34-.34 2.14-1.7 1.8-3.04l-4.84 1.24zm2.4-43.27c.2-1.37-.77-2.64-2.13-2.83-1.37-.2-2.64.77-2.83 2.13l4.96.7zM2.08-1.4C1.3-2.53-.24-2.84-1.4-2.07c-1.13.77-1.44 2.3-.67 3.47L2.1-1.4zm21.84 46.3l-5.5-21.5-4.84 1.24 5.5 21.5 4.84-1.24zm-5.44-20.53l3-21.5-4.96-.7-3 21.5 4.96.7zM-2.08 1.4l16 24 4.16-2.8-16-24-4.16 2.8z"/>
    <path id="v" d="M.38 2.44L27.9 24.26c.76.6.87 1.7.25 2.43-.48.5-1.4.7-2.03.3L5.42 14.2c-.44-.27-1-.12-1.26.32l-.4.68c-.2.38-.14.85.16 1.14C6.94 19.3 22.17 34.3 22.48 34.46c.12.06 1.42.38 3.1.77 5.1 1.2 10.34 1.7 15.6 1.43l4.84-.24 3.48-.18 5.4-.23-15.38-12.4c-2.38-1.8-6.42-4.6-9-6.2L1.84.2C1.4-.1.84.04.54.5l-.4.62C-.1 1.5 0 2.1.4 2.42z"/>
    <path id="w" d="M65.66 60.08c1.85 1.06 4.52 1.67 6.43 1.4l26.3-3.84c2.6-.4 4.5-2.86 4.2-5.52-.9-7.87-2.9-15.46-6-22.73-.98-2.3-1.8-4.1-2.4-4.9l-3.8-5.1c-1.8-2.5-5.3-5.8-7.8-7.5l-6.3-4.3C73.9 6 69.5 4 66.6 3.2l-4.8-1.4C58.2.82 52.1 0 48.3 0h-6.47c-3.8 0-10 .4-13.77.9L4.83 4C3.55 4.2 1.8 5.13.93 6.1l-.67.76c-.4.45-.33 1.12.13 1.5L62.9 58l2.76 2.08zM5.53 9.84l22.34 8.72C32.6 20.4 40 24.18 44.3 26.94l14.58 9.38c.97.63 1.26 1.94.63 2.92L58.4 41c-.62 1-1.93 1.28-2.9.67L5.53 9.84zm43.2-2.93c0 .5-.4.9-.9.9L12.8 5.7l13.1-1.24c5.06-.48 13.3-.24 18.34.55l3.6.6c.5.1.9.6.9 1.1V7zM89.55 26L86 23.9c-2.87-1.7-7.66-4.3-10.64-5.78l-14.7-7.34c3.3 0 8.57.97 11.68 2.16l5.1 1.95c3.12 1.1 7.3 4.3 9.33 7l2.93 3.8c.2.2.14.3-.15.2zm8.57 13.7c-.68 0-1.75-.23-2.38-.5L82.7 33.5c-.8-.35-1.46-1.36-1.46-2.23v-1.74c0-.2.18-.4.4-.4 2.68 0 6.73 1.2 9 2.64l2.2 1.42c1.8 1.1 4 3.6 4.9 5.6l.38.8zm-28.64-5.03c2.64 0 6.8.8 9.27 1.78l7.8 3.1c2.3.93 4.44 2.18 6.36 3.77 1.6 1.3 3.6 2.9 5 4 .3.24.5.64.4 1.03-.1.4-.4.7-.7.77-.8.17-1.6.3-1.8.3-.15 0-1-.08-2.03-.2-2.9-.36-5.8-1.24-8.4-2.57L81 44.48c-3.07-1.55-7.4-4.97-9.6-7.6l-1.85-2.2zm-.2-6.82L14.36 8.6l23.1 3.54c4.75.73 12.3 2.8 16.78 4.6l16.3 6.6c.86.34 1.36 1.36 1.1 2.25l-.3 1.1c-.26.9-1.17 1.4-2.04 1.1z"/>
    <path id="x" d="M20 10c0 5.52-4.48 10-10 10S0 15.52 0 10 4.48 0 10 0s10 4.48 10 10z"/>
  </defs>
</svg>
